<svg width="1728" height="821" viewBox="0 0 1728 821" fill="none" xmlns="http://www.w3.org/2000/svg">
<g clip-path="url(#clip0_636_29)">
<path d="M1728 410.5C1463.89 853.883 1391.58 853.883 1602.86 410.5C1767.56 162.67 1741.15 162.67 1523.63 410.5C1259.52 658.33 1233.11 658.33 1444.4 410.5C1646.61 183.968 1620.2 183.968 1365.17 410.5C1101.06 637.032 1074.65 637.032 1285.93 410.5C1616.41 -71.6065 1590 -71.6065 1206.7 410.5C942.592 892.606 916.181 892.606 1127.47 410.5C1350.21 -123.883 1323.8 -123.883 1048.24 410.5C784.127 944.883 757.716 944.883 969.003 410.5C1136.27 98.7766 1109.86 98.7766 889.771 410.5C625.662 722.223 599.251 722.223 810.538 410.5C1034.29 61.9894 1007.88 61.9894 731.305 410.5C467.197 759.011 440.786 759.011 652.073 410.5C897.4 -50.3086 870.99 -50.3086 572.84 410.5C308.732 871.309 282.321 871.309 493.608 410.5C707.114 -59.9894 680.703 -59.9894 414.375 410.5C150.267 880.989 123.856 880.989 335.143 410.5C563.385 -135.5 536.974 -135.5 255.91 410.5C-8.19849 956.5 -34.6095 956.5 176.677 410.5C365.112 -17.3937 241.257 -17.3936 0 410.5" stroke="white" stroke-opacity="0.6" stroke-width="1.5" stroke-linecap="round"/>
</g>
<defs>
<clipPath id="clip0_636_29">
<rect width="1728" height="821" fill="white"/>
</clipPath>
</defs>
</svg>
